<mxfile host="app.diagrams.net" agent="Mozilla/5.0 (Windows NT 10.0; Win64; x64) AppleWebKit/537.36 (KHTML, like Gecko) Chrome/129.0.0.0 Safari/537.36" version="24.7.14" pages="2">
  <diagram id="RhH2c48PtcmpWKnK2_gs" name="Page-1">
    <mxGraphModel dx="5700" dy="2727" grid="1" gridSize="10" guides="1" tooltips="1" connect="1" arrows="1" fold="1" page="1" pageScale="1" pageWidth="1100" pageHeight="850" background="#FFFFFF" math="0" shadow="0">
      <root>
        <mxCell id="0" />
        <mxCell id="1" parent="0" />
        <mxCell id="hfRFv-ZQtOtm15L3ZewX-9" value="Product" style="swimlane;fontStyle=1;align=center;verticalAlign=top;childLayout=stackLayout;horizontal=1;startSize=26;horizontalStack=0;resizeParent=1;resizeParentMax=0;resizeLast=0;collapsible=1;marginBottom=0;whiteSpace=wrap;html=1;" parent="1" vertex="1">
          <mxGeometry x="-870" y="-700" width="153" height="188" as="geometry" />
        </mxCell>
        <mxCell id="hfRFv-ZQtOtm15L3ZewX-10" value="- name: string" style="text;strokeColor=none;fillColor=none;align=left;verticalAlign=top;spacingLeft=4;spacingRight=4;overflow=hidden;rotatable=0;points=[[0,0.5],[1,0.5]];portConstraint=eastwest;whiteSpace=wrap;html=1;" parent="hfRFv-ZQtOtm15L3ZewX-9" vertex="1">
          <mxGeometry y="26" width="153" height="23" as="geometry" />
        </mxCell>
        <mxCell id="hfRFv-ZQtOtm15L3ZewX-17" value="- price: int" style="text;strokeColor=none;fillColor=none;align=left;verticalAlign=top;spacingLeft=4;spacingRight=4;overflow=hidden;rotatable=0;points=[[0,0.5],[1,0.5]];portConstraint=eastwest;whiteSpace=wrap;html=1;" parent="hfRFv-ZQtOtm15L3ZewX-9" vertex="1">
          <mxGeometry y="49" width="153" height="24" as="geometry" />
        </mxCell>
        <mxCell id="30ZgVDHLljCXbjBKu-6W-2" value="- productId:int" style="text;strokeColor=none;fillColor=none;align=left;verticalAlign=top;spacingLeft=4;spacingRight=4;overflow=hidden;rotatable=0;points=[[0,0.5],[1,0.5]];portConstraint=eastwest;whiteSpace=wrap;html=1;" vertex="1" parent="hfRFv-ZQtOtm15L3ZewX-9">
          <mxGeometry y="73" width="153" height="24" as="geometry" />
        </mxCell>
        <mxCell id="hfRFv-ZQtOtm15L3ZewX-11" value="" style="line;strokeWidth=1;fillColor=none;align=left;verticalAlign=middle;spacingTop=-1;spacingLeft=3;spacingRight=3;rotatable=0;labelPosition=right;points=[];portConstraint=eastwest;strokeColor=inherit;" parent="hfRFv-ZQtOtm15L3ZewX-9" vertex="1">
          <mxGeometry y="97" width="153" height="8" as="geometry" />
        </mxCell>
        <mxCell id="hfRFv-ZQtOtm15L3ZewX-12" value="+ GetName(): string" style="text;strokeColor=none;fillColor=none;align=left;verticalAlign=top;spacingLeft=4;spacingRight=4;overflow=hidden;rotatable=0;points=[[0,0.5],[1,0.5]];portConstraint=eastwest;whiteSpace=wrap;html=1;" parent="hfRFv-ZQtOtm15L3ZewX-9" vertex="1">
          <mxGeometry y="105" width="153" height="27" as="geometry" />
        </mxCell>
        <mxCell id="hfRFv-ZQtOtm15L3ZewX-13" value="+ GetPrice(): int" style="text;strokeColor=none;fillColor=none;align=left;verticalAlign=top;spacingLeft=4;spacingRight=4;overflow=hidden;rotatable=0;points=[[0,0.5],[1,0.5]];portConstraint=eastwest;whiteSpace=wrap;html=1;" parent="hfRFv-ZQtOtm15L3ZewX-9" vertex="1">
          <mxGeometry y="132" width="153" height="28" as="geometry" />
        </mxCell>
        <mxCell id="30ZgVDHLljCXbjBKu-6W-3" value="+ GetProductId(): int" style="text;strokeColor=none;fillColor=none;align=left;verticalAlign=top;spacingLeft=4;spacingRight=4;overflow=hidden;rotatable=0;points=[[0,0.5],[1,0.5]];portConstraint=eastwest;whiteSpace=wrap;html=1;" vertex="1" parent="hfRFv-ZQtOtm15L3ZewX-9">
          <mxGeometry y="160" width="153" height="28" as="geometry" />
        </mxCell>
        <mxCell id="hfRFv-ZQtOtm15L3ZewX-20" value="&lt;p style=&quot;margin:0px;margin-top:4px;text-align:center;&quot;&gt;&lt;i&gt;&amp;lt;&amp;lt;Interface&amp;gt;&amp;gt;&lt;/i&gt;&lt;br&gt;&lt;b&gt;VendingMachineState&lt;/b&gt;&lt;/p&gt;&lt;hr size=&quot;1&quot; style=&quot;border-style:solid;&quot;&gt;&lt;p style=&quot;margin:0px;margin-left:4px;&quot;&gt;+ SelectProduct(): void&lt;/p&gt;&lt;p style=&quot;margin:0px;margin-left:4px;&quot;&gt;+ ProcessPayment(): bool&lt;br&gt;&lt;/p&gt;&lt;p style=&quot;margin:0px;margin-left:4px;&quot;&gt;+ DispenseProduct(): void&lt;/p&gt;" style="verticalAlign=top;align=left;overflow=fill;html=1;whiteSpace=wrap;" parent="1" vertex="1">
          <mxGeometry x="308" y="315" width="190" height="105" as="geometry" />
        </mxCell>
        <mxCell id="hfRFv-ZQtOtm15L3ZewX-29" value="IdleState" style="swimlane;fontStyle=1;align=center;verticalAlign=top;childLayout=stackLayout;horizontal=1;startSize=26;horizontalStack=0;resizeParent=1;resizeParentMax=0;resizeLast=0;collapsible=1;marginBottom=0;whiteSpace=wrap;html=1;" parent="1" vertex="1">
          <mxGeometry x="-76" y="490" width="216" height="104" as="geometry" />
        </mxCell>
        <mxCell id="hfRFv-ZQtOtm15L3ZewX-30" value="+ SelectProduct(): void" style="text;strokeColor=none;fillColor=none;align=left;verticalAlign=top;spacingLeft=4;spacingRight=4;overflow=hidden;rotatable=0;points=[[0,0.5],[1,0.5]];portConstraint=eastwest;whiteSpace=wrap;html=1;" parent="hfRFv-ZQtOtm15L3ZewX-29" vertex="1">
          <mxGeometry y="26" width="216" height="26" as="geometry" />
        </mxCell>
        <mxCell id="hfRFv-ZQtOtm15L3ZewX-34" value="+ ProcessPayment(): bool" style="text;strokeColor=none;fillColor=none;align=left;verticalAlign=top;spacingLeft=4;spacingRight=4;overflow=hidden;rotatable=0;points=[[0,0.5],[1,0.5]];portConstraint=eastwest;whiteSpace=wrap;html=1;" parent="hfRFv-ZQtOtm15L3ZewX-29" vertex="1">
          <mxGeometry y="52" width="216" height="26" as="geometry" />
        </mxCell>
        <mxCell id="30ZgVDHLljCXbjBKu-6W-55" value="+ DispenseProduct(): void" style="text;strokeColor=none;fillColor=none;align=left;verticalAlign=top;spacingLeft=4;spacingRight=4;overflow=hidden;rotatable=0;points=[[0,0.5],[1,0.5]];portConstraint=eastwest;whiteSpace=wrap;html=1;" vertex="1" parent="hfRFv-ZQtOtm15L3ZewX-29">
          <mxGeometry y="78" width="216" height="26" as="geometry" />
        </mxCell>
        <mxCell id="hfRFv-ZQtOtm15L3ZewX-36" value="SelectState" style="swimlane;fontStyle=1;align=center;verticalAlign=top;childLayout=stackLayout;horizontal=1;startSize=26;horizontalStack=0;resizeParent=1;resizeParentMax=0;resizeLast=0;collapsible=1;marginBottom=0;whiteSpace=wrap;html=1;" parent="1" vertex="1">
          <mxGeometry x="295" y="490" width="216" height="104" as="geometry" />
        </mxCell>
        <mxCell id="hfRFv-ZQtOtm15L3ZewX-37" value="+ SelectProduct(): void" style="text;strokeColor=none;fillColor=none;align=left;verticalAlign=top;spacingLeft=4;spacingRight=4;overflow=hidden;rotatable=0;points=[[0,0.5],[1,0.5]];portConstraint=eastwest;whiteSpace=wrap;html=1;" parent="hfRFv-ZQtOtm15L3ZewX-36" vertex="1">
          <mxGeometry y="26" width="216" height="26" as="geometry" />
        </mxCell>
        <mxCell id="hfRFv-ZQtOtm15L3ZewX-38" value="+ ProcessPayment(): bool" style="text;strokeColor=none;fillColor=none;align=left;verticalAlign=top;spacingLeft=4;spacingRight=4;overflow=hidden;rotatable=0;points=[[0,0.5],[1,0.5]];portConstraint=eastwest;whiteSpace=wrap;html=1;" parent="hfRFv-ZQtOtm15L3ZewX-36" vertex="1">
          <mxGeometry y="52" width="216" height="26" as="geometry" />
        </mxCell>
        <mxCell id="hfRFv-ZQtOtm15L3ZewX-39" value="+ DispenseProduct(): void" style="text;strokeColor=none;fillColor=none;align=left;verticalAlign=top;spacingLeft=4;spacingRight=4;overflow=hidden;rotatable=0;points=[[0,0.5],[1,0.5]];portConstraint=eastwest;whiteSpace=wrap;html=1;" parent="hfRFv-ZQtOtm15L3ZewX-36" vertex="1">
          <mxGeometry y="78" width="216" height="26" as="geometry" />
        </mxCell>
        <mxCell id="hfRFv-ZQtOtm15L3ZewX-46" value="ReturnChangeState" style="swimlane;fontStyle=1;align=center;verticalAlign=top;childLayout=stackLayout;horizontal=1;startSize=26;horizontalStack=0;resizeParent=1;resizeParentMax=0;resizeLast=0;collapsible=1;marginBottom=0;whiteSpace=wrap;html=1;" parent="1" vertex="1">
          <mxGeometry x="654" y="489" width="216" height="104" as="geometry" />
        </mxCell>
        <mxCell id="hfRFv-ZQtOtm15L3ZewX-47" value="+ SelectProduct(): void" style="text;strokeColor=none;fillColor=none;align=left;verticalAlign=top;spacingLeft=4;spacingRight=4;overflow=hidden;rotatable=0;points=[[0,0.5],[1,0.5]];portConstraint=eastwest;whiteSpace=wrap;html=1;" parent="hfRFv-ZQtOtm15L3ZewX-46" vertex="1">
          <mxGeometry y="26" width="216" height="26" as="geometry" />
        </mxCell>
        <mxCell id="hfRFv-ZQtOtm15L3ZewX-48" value="+ ProcessPayment() : bool" style="text;strokeColor=none;fillColor=none;align=left;verticalAlign=top;spacingLeft=4;spacingRight=4;overflow=hidden;rotatable=0;points=[[0,0.5],[1,0.5]];portConstraint=eastwest;whiteSpace=wrap;html=1;" parent="hfRFv-ZQtOtm15L3ZewX-46" vertex="1">
          <mxGeometry y="52" width="216" height="26" as="geometry" />
        </mxCell>
        <mxCell id="hfRFv-ZQtOtm15L3ZewX-49" value="+ DispenseProduct(): void" style="text;strokeColor=none;fillColor=none;align=left;verticalAlign=top;spacingLeft=4;spacingRight=4;overflow=hidden;rotatable=0;points=[[0,0.5],[1,0.5]];portConstraint=eastwest;whiteSpace=wrap;html=1;" parent="hfRFv-ZQtOtm15L3ZewX-46" vertex="1">
          <mxGeometry y="78" width="216" height="26" as="geometry" />
        </mxCell>
        <mxCell id="hfRFv-ZQtOtm15L3ZewX-51" value="VendingMachine" style="swimlane;fontStyle=1;align=center;verticalAlign=top;childLayout=stackLayout;horizontal=1;startSize=26;horizontalStack=0;resizeParent=1;resizeParentMax=0;resizeLast=0;collapsible=1;marginBottom=0;whiteSpace=wrap;html=1;" parent="1" vertex="1">
          <mxGeometry x="-611" y="-149" width="256" height="396" as="geometry" />
        </mxCell>
        <mxCell id="hfRFv-ZQtOtm15L3ZewX-52" value="- idlestate: VendingMachineState*" style="text;strokeColor=none;fillColor=none;align=left;verticalAlign=top;spacingLeft=4;spacingRight=4;overflow=hidden;rotatable=0;points=[[0,0.5],[1,0.5]];portConstraint=eastwest;whiteSpace=wrap;html=1;" parent="hfRFv-ZQtOtm15L3ZewX-51" vertex="1">
          <mxGeometry y="26" width="256" height="24" as="geometry" />
        </mxCell>
        <mxCell id="hfRFv-ZQtOtm15L3ZewX-59" value="- selectstate: VendingMachineState*" style="text;strokeColor=none;fillColor=none;align=left;verticalAlign=top;spacingLeft=4;spacingRight=4;overflow=hidden;rotatable=0;points=[[0,0.5],[1,0.5]];portConstraint=eastwest;whiteSpace=wrap;html=1;" parent="hfRFv-ZQtOtm15L3ZewX-51" vertex="1">
          <mxGeometry y="50" width="256" height="27" as="geometry" />
        </mxCell>
        <mxCell id="hfRFv-ZQtOtm15L3ZewX-60" value="- dispensestate: VendingMachineState*" style="text;strokeColor=none;fillColor=none;align=left;verticalAlign=top;spacingLeft=4;spacingRight=4;overflow=hidden;rotatable=0;points=[[0,0.5],[1,0.5]];portConstraint=eastwest;whiteSpace=wrap;html=1;" parent="hfRFv-ZQtOtm15L3ZewX-51" vertex="1">
          <mxGeometry y="77" width="256" height="22" as="geometry" />
        </mxCell>
        <mxCell id="hfRFv-ZQtOtm15L3ZewX-62" value="- curentState: VendingMachineState*" style="text;strokeColor=none;fillColor=none;align=left;verticalAlign=top;spacingLeft=4;spacingRight=4;overflow=hidden;rotatable=0;points=[[0,0.5],[1,0.5]];portConstraint=eastwest;whiteSpace=wrap;html=1;" parent="hfRFv-ZQtOtm15L3ZewX-51" vertex="1">
          <mxGeometry y="99" width="256" height="23" as="geometry" />
        </mxCell>
        <mxCell id="1szoUk2Qu7n9edS88V_P-2" value="+inventory:Inventory*" style="text;strokeColor=none;fillColor=none;align=left;verticalAlign=top;spacingLeft=4;spacingRight=4;overflow=hidden;rotatable=0;points=[[0,0.5],[1,0.5]];portConstraint=eastwest;whiteSpace=wrap;html=1;" parent="hfRFv-ZQtOtm15L3ZewX-51" vertex="1">
          <mxGeometry y="122" width="256" height="23" as="geometry" />
        </mxCell>
        <mxCell id="hfRFv-ZQtOtm15L3ZewX-53" value="" style="line;strokeWidth=1;fillColor=none;align=left;verticalAlign=middle;spacingTop=-1;spacingLeft=3;spacingRight=3;rotatable=0;labelPosition=right;points=[];portConstraint=eastwest;strokeColor=inherit;" parent="hfRFv-ZQtOtm15L3ZewX-51" vertex="1">
          <mxGeometry y="145" width="256" height="8" as="geometry" />
        </mxCell>
        <mxCell id="30ZgVDHLljCXbjBKu-6W-45" value="&lt;p style=&quot;margin: 0px 0px 0px 4px;&quot;&gt;+ getInstance(): VendingMachine&lt;/p&gt;" style="text;strokeColor=none;fillColor=none;align=left;verticalAlign=top;spacingLeft=4;spacingRight=4;overflow=hidden;rotatable=0;points=[[0,0.5],[1,0.5]];portConstraint=eastwest;whiteSpace=wrap;html=1;" vertex="1" parent="hfRFv-ZQtOtm15L3ZewX-51">
          <mxGeometry y="153" width="256" height="27" as="geometry" />
        </mxCell>
        <mxCell id="30ZgVDHLljCXbjBKu-6W-46" value="&lt;p style=&quot;margin: 0px 0px 0px 4px;&quot;&gt;+ ScanRackProducts(): void&lt;/p&gt;" style="text;strokeColor=none;fillColor=none;align=left;verticalAlign=top;spacingLeft=4;spacingRight=4;overflow=hidden;rotatable=0;points=[[0,0.5],[1,0.5]];portConstraint=eastwest;whiteSpace=wrap;html=1;" vertex="1" parent="hfRFv-ZQtOtm15L3ZewX-51">
          <mxGeometry y="180" width="256" height="24" as="geometry" />
        </mxCell>
        <mxCell id="30ZgVDHLljCXbjBKu-6W-47" value="&lt;p style=&quot;margin: 0px 0px 0px 4px;&quot;&gt;+ GetInventory(): Inventory*&lt;/p&gt;" style="text;strokeColor=none;fillColor=none;align=left;verticalAlign=top;spacingLeft=4;spacingRight=4;overflow=hidden;rotatable=0;points=[[0,0.5],[1,0.5]];portConstraint=eastwest;whiteSpace=wrap;html=1;" vertex="1" parent="hfRFv-ZQtOtm15L3ZewX-51">
          <mxGeometry y="204" width="256" height="24" as="geometry" />
        </mxCell>
        <mxCell id="30ZgVDHLljCXbjBKu-6W-48" value="&lt;p style=&quot;margin: 0px 0px 0px 4px;&quot;&gt;+ SelectProduct(): void&lt;/p&gt;" style="text;strokeColor=none;fillColor=none;align=left;verticalAlign=top;spacingLeft=4;spacingRight=4;overflow=hidden;rotatable=0;points=[[0,0.5],[1,0.5]];portConstraint=eastwest;whiteSpace=wrap;html=1;" vertex="1" parent="hfRFv-ZQtOtm15L3ZewX-51">
          <mxGeometry y="228" width="256" height="24" as="geometry" />
        </mxCell>
        <mxCell id="30ZgVDHLljCXbjBKu-6W-49" value="&lt;p style=&quot;margin: 0px 0px 0px 4px;&quot;&gt;+ ProcessPayment(): bool&lt;/p&gt;" style="text;strokeColor=none;fillColor=none;align=left;verticalAlign=top;spacingLeft=4;spacingRight=4;overflow=hidden;rotatable=0;points=[[0,0.5],[1,0.5]];portConstraint=eastwest;whiteSpace=wrap;html=1;" vertex="1" parent="hfRFv-ZQtOtm15L3ZewX-51">
          <mxGeometry y="252" width="256" height="24" as="geometry" />
        </mxCell>
        <mxCell id="30ZgVDHLljCXbjBKu-6W-50" value="&lt;p style=&quot;margin: 0px 0px 0px 4px;&quot;&gt;+ DispenseProduct(): void&lt;/p&gt;" style="text;strokeColor=none;fillColor=none;align=left;verticalAlign=top;spacingLeft=4;spacingRight=4;overflow=hidden;rotatable=0;points=[[0,0.5],[1,0.5]];portConstraint=eastwest;whiteSpace=wrap;html=1;" vertex="1" parent="hfRFv-ZQtOtm15L3ZewX-51">
          <mxGeometry y="276" width="256" height="24" as="geometry" />
        </mxCell>
        <mxCell id="30ZgVDHLljCXbjBKu-6W-51" value="&lt;p style=&quot;margin: 0px 0px 0px 4px;&quot;&gt;+ SetCurrentState(): void&lt;/p&gt;" style="text;strokeColor=none;fillColor=none;align=left;verticalAlign=top;spacingLeft=4;spacingRight=4;overflow=hidden;rotatable=0;points=[[0,0.5],[1,0.5]];portConstraint=eastwest;whiteSpace=wrap;html=1;" vertex="1" parent="hfRFv-ZQtOtm15L3ZewX-51">
          <mxGeometry y="300" width="256" height="24" as="geometry" />
        </mxCell>
        <mxCell id="30ZgVDHLljCXbjBKu-6W-52" value="&lt;p style=&quot;margin: 0px 0px 0px 4px;&quot;&gt;+ GetIdleState():&amp;nbsp;&lt;span style=&quot;background-color: initial;&quot;&gt;VendingMachineState*&lt;/span&gt;&lt;/p&gt;" style="text;strokeColor=none;fillColor=none;align=left;verticalAlign=top;spacingLeft=4;spacingRight=4;overflow=hidden;rotatable=0;points=[[0,0.5],[1,0.5]];portConstraint=eastwest;whiteSpace=wrap;html=1;" vertex="1" parent="hfRFv-ZQtOtm15L3ZewX-51">
          <mxGeometry y="324" width="256" height="24" as="geometry" />
        </mxCell>
        <mxCell id="30ZgVDHLljCXbjBKu-6W-53" value="&lt;p style=&quot;margin: 0px 0px 0px 4px;&quot;&gt;+ GetSelectState():&amp;nbsp;&lt;span style=&quot;background-color: initial;&quot;&gt;VendingMachineState*&lt;/span&gt;&lt;/p&gt;" style="text;strokeColor=none;fillColor=none;align=left;verticalAlign=top;spacingLeft=4;spacingRight=4;overflow=hidden;rotatable=0;points=[[0,0.5],[1,0.5]];portConstraint=eastwest;whiteSpace=wrap;html=1;" vertex="1" parent="hfRFv-ZQtOtm15L3ZewX-51">
          <mxGeometry y="348" width="256" height="24" as="geometry" />
        </mxCell>
        <mxCell id="30ZgVDHLljCXbjBKu-6W-54" value="&lt;p style=&quot;margin: 0px 0px 0px 4px;&quot;&gt;+ GetDispense():&amp;nbsp;&lt;span style=&quot;background-color: initial;&quot;&gt;VendingMachineState*&lt;/span&gt;&lt;/p&gt;" style="text;strokeColor=none;fillColor=none;align=left;verticalAlign=top;spacingLeft=4;spacingRight=4;overflow=hidden;rotatable=0;points=[[0,0.5],[1,0.5]];portConstraint=eastwest;whiteSpace=wrap;html=1;" vertex="1" parent="hfRFv-ZQtOtm15L3ZewX-51">
          <mxGeometry y="372" width="256" height="24" as="geometry" />
        </mxCell>
        <mxCell id="hfRFv-ZQtOtm15L3ZewX-65" value="" style="endArrow=block;dashed=1;endFill=0;endSize=12;html=1;rounded=0;fontSize=12;curved=1;exitX=0.42;exitY=0.013;exitDx=0;exitDy=0;exitPerimeter=0;" parent="1" source="hfRFv-ZQtOtm15L3ZewX-29" edge="1">
          <mxGeometry width="160" relative="1" as="geometry">
            <mxPoint x="-50" y="407" as="sourcePoint" />
            <mxPoint x="306" y="372" as="targetPoint" />
          </mxGeometry>
        </mxCell>
        <mxCell id="hfRFv-ZQtOtm15L3ZewX-66" value="" style="endArrow=block;dashed=1;endFill=0;endSize=12;html=1;rounded=0;fontSize=12;curved=1;entryX=1;entryY=0.5;entryDx=0;entryDy=0;exitX=0.5;exitY=0;exitDx=0;exitDy=0;" parent="1" source="hfRFv-ZQtOtm15L3ZewX-46" target="hfRFv-ZQtOtm15L3ZewX-20" edge="1">
          <mxGeometry width="160" relative="1" as="geometry">
            <mxPoint x="679" y="440" as="sourcePoint" />
            <mxPoint x="839" y="440" as="targetPoint" />
          </mxGeometry>
        </mxCell>
        <mxCell id="hfRFv-ZQtOtm15L3ZewX-68" value="" style="endArrow=block;dashed=1;endFill=0;endSize=12;html=1;rounded=0;fontSize=12;curved=1;entryX=0.5;entryY=1;entryDx=0;entryDy=0;exitX=0.5;exitY=0;exitDx=0;exitDy=0;" parent="1" source="hfRFv-ZQtOtm15L3ZewX-36" target="hfRFv-ZQtOtm15L3ZewX-20" edge="1">
          <mxGeometry width="160" relative="1" as="geometry">
            <mxPoint x="256" y="481" as="sourcePoint" />
            <mxPoint x="416" y="481" as="targetPoint" />
          </mxGeometry>
        </mxCell>
        <mxCell id="hfRFv-ZQtOtm15L3ZewX-91" value="" style="endArrow=none;html=1;rounded=0;" parent="1" edge="1">
          <mxGeometry width="50" height="50" relative="1" as="geometry">
            <mxPoint x="1040" y="820" as="sourcePoint" />
            <mxPoint x="1031" y="-830" as="targetPoint" />
          </mxGeometry>
        </mxCell>
        <mxCell id="1szoUk2Qu7n9edS88V_P-10" value="Spindle" style="swimlane;fontStyle=1;align=center;verticalAlign=top;childLayout=stackLayout;horizontal=1;startSize=26;horizontalStack=0;resizeParent=1;resizeParentMax=0;resizeLast=0;collapsible=1;marginBottom=0;whiteSpace=wrap;html=1;" parent="1" vertex="1">
          <mxGeometry x="-1230" y="-510" width="210" height="271" as="geometry" />
        </mxCell>
        <mxCell id="1szoUk2Qu7n9edS88V_P-11" value="- productCount: int" style="text;strokeColor=none;fillColor=none;align=left;verticalAlign=top;spacingLeft=4;spacingRight=4;overflow=hidden;rotatable=0;points=[[0,0.5],[1,0.5]];portConstraint=eastwest;whiteSpace=wrap;html=1;" parent="1szoUk2Qu7n9edS88V_P-10" vertex="1">
          <mxGeometry y="26" width="210" height="23" as="geometry" />
        </mxCell>
        <mxCell id="30ZgVDHLljCXbjBKu-6W-4" value="- spindleId: int" style="text;strokeColor=none;fillColor=none;align=left;verticalAlign=top;spacingLeft=4;spacingRight=4;overflow=hidden;rotatable=0;points=[[0,0.5],[1,0.5]];portConstraint=eastwest;whiteSpace=wrap;html=1;" vertex="1" parent="1szoUk2Qu7n9edS88V_P-10">
          <mxGeometry y="49" width="210" height="23" as="geometry" />
        </mxCell>
        <mxCell id="1szoUk2Qu7n9edS88V_P-12" value="- product: Product*" style="text;strokeColor=none;fillColor=none;align=left;verticalAlign=top;spacingLeft=4;spacingRight=4;overflow=hidden;rotatable=0;points=[[0,0.5],[1,0.5]];portConstraint=eastwest;whiteSpace=wrap;html=1;" parent="1szoUk2Qu7n9edS88V_P-10" vertex="1">
          <mxGeometry y="72" width="210" height="24" as="geometry" />
        </mxCell>
        <mxCell id="1szoUk2Qu7n9edS88V_P-13" value="" style="line;strokeWidth=1;fillColor=none;align=left;verticalAlign=middle;spacingTop=-1;spacingLeft=3;spacingRight=3;rotatable=0;labelPosition=right;points=[];portConstraint=eastwest;strokeColor=inherit;" parent="1szoUk2Qu7n9edS88V_P-10" vertex="1">
          <mxGeometry y="96" width="210" height="8" as="geometry" />
        </mxCell>
        <mxCell id="1szoUk2Qu7n9edS88V_P-14" value="+ GetSpindleProductName(): string" style="text;strokeColor=none;fillColor=none;align=left;verticalAlign=top;spacingLeft=4;spacingRight=4;overflow=hidden;rotatable=0;points=[[0,0.5],[1,0.5]];portConstraint=eastwest;whiteSpace=wrap;html=1;" parent="1szoUk2Qu7n9edS88V_P-10" vertex="1">
          <mxGeometry y="104" width="210" height="27" as="geometry" />
        </mxCell>
        <mxCell id="1szoUk2Qu7n9edS88V_P-15" value="+ GetSpindleProductPrice(): int" style="text;strokeColor=none;fillColor=none;align=left;verticalAlign=top;spacingLeft=4;spacingRight=4;overflow=hidden;rotatable=0;points=[[0,0.5],[1,0.5]];portConstraint=eastwest;whiteSpace=wrap;html=1;" parent="1szoUk2Qu7n9edS88V_P-10" vertex="1">
          <mxGeometry y="131" width="210" height="28" as="geometry" />
        </mxCell>
        <mxCell id="1szoUk2Qu7n9edS88V_P-19" value="+ GetAvailableCount(): int" style="text;strokeColor=none;fillColor=none;align=left;verticalAlign=top;spacingLeft=4;spacingRight=4;overflow=hidden;rotatable=0;points=[[0,0.5],[1,0.5]];portConstraint=eastwest;whiteSpace=wrap;html=1;" parent="1szoUk2Qu7n9edS88V_P-10" vertex="1">
          <mxGeometry y="159" width="210" height="28" as="geometry" />
        </mxCell>
        <mxCell id="1szoUk2Qu7n9edS88V_P-29" value="+ DispenseSpindleProduct(): void" style="text;strokeColor=none;fillColor=none;align=left;verticalAlign=top;spacingLeft=4;spacingRight=4;overflow=hidden;rotatable=0;points=[[0,0.5],[1,0.5]];portConstraint=eastwest;whiteSpace=wrap;html=1;" parent="1szoUk2Qu7n9edS88V_P-10" vertex="1">
          <mxGeometry y="187" width="210" height="28" as="geometry" />
        </mxCell>
        <mxCell id="30ZgVDHLljCXbjBKu-6W-5" value="+ GetSpindleProductId(): void" style="text;strokeColor=none;fillColor=none;align=left;verticalAlign=top;spacingLeft=4;spacingRight=4;overflow=hidden;rotatable=0;points=[[0,0.5],[1,0.5]];portConstraint=eastwest;whiteSpace=wrap;html=1;" vertex="1" parent="1szoUk2Qu7n9edS88V_P-10">
          <mxGeometry y="215" width="210" height="28" as="geometry" />
        </mxCell>
        <mxCell id="30ZgVDHLljCXbjBKu-6W-6" value="+ GetSpindleId(): void" style="text;strokeColor=none;fillColor=none;align=left;verticalAlign=top;spacingLeft=4;spacingRight=4;overflow=hidden;rotatable=0;points=[[0,0.5],[1,0.5]];portConstraint=eastwest;whiteSpace=wrap;html=1;" vertex="1" parent="1szoUk2Qu7n9edS88V_P-10">
          <mxGeometry y="243" width="210" height="28" as="geometry" />
        </mxCell>
        <mxCell id="1szoUk2Qu7n9edS88V_P-18" value="" style="endArrow=diamondThin;endFill=1;endSize=24;html=1;rounded=0;exitX=0;exitY=0.5;exitDx=0;exitDy=0;curved=1;entryX=1;entryY=0.5;entryDx=0;entryDy=0;" parent="1" source="hfRFv-ZQtOtm15L3ZewX-17" edge="1" target="30ZgVDHLljCXbjBKu-6W-4">
          <mxGeometry width="160" relative="1" as="geometry">
            <mxPoint x="-907" y="-442.83000000000004" as="sourcePoint" />
            <mxPoint x="-1037" y="-442.83000000000004" as="targetPoint" />
            <Array as="points">
              <mxPoint x="-950" y="-630" />
              <mxPoint x="-930" y="-450" />
            </Array>
          </mxGeometry>
        </mxCell>
        <mxCell id="1szoUk2Qu7n9edS88V_P-21" value="Rack" style="swimlane;fontStyle=1;align=center;verticalAlign=top;childLayout=stackLayout;horizontal=1;startSize=26;horizontalStack=0;resizeParent=1;resizeParentMax=0;resizeLast=0;collapsible=1;marginBottom=0;whiteSpace=wrap;html=1;" parent="1" vertex="1">
          <mxGeometry x="-1550" y="-340" width="223" height="357" as="geometry" />
        </mxCell>
        <mxCell id="30ZgVDHLljCXbjBKu-6W-11" value="- rackID: int" style="text;strokeColor=none;fillColor=none;align=left;verticalAlign=top;spacingLeft=4;spacingRight=4;overflow=hidden;rotatable=0;points=[[0,0.5],[1,0.5]];portConstraint=eastwest;whiteSpace=wrap;html=1;" vertex="1" parent="1szoUk2Qu7n9edS88V_P-21">
          <mxGeometry y="26" width="223" height="24" as="geometry" />
        </mxCell>
        <mxCell id="30ZgVDHLljCXbjBKu-6W-12" value="- spindles: hashmap" style="text;strokeColor=none;fillColor=none;align=left;verticalAlign=top;spacingLeft=4;spacingRight=4;overflow=hidden;rotatable=0;points=[[0,0.5],[1,0.5]];portConstraint=eastwest;whiteSpace=wrap;html=1;" vertex="1" parent="1szoUk2Qu7n9edS88V_P-21">
          <mxGeometry y="50" width="223" height="24" as="geometry" />
        </mxCell>
        <mxCell id="1szoUk2Qu7n9edS88V_P-23" value="- producToSpindleID: hashmap" style="text;strokeColor=none;fillColor=none;align=left;verticalAlign=top;spacingLeft=4;spacingRight=4;overflow=hidden;rotatable=0;points=[[0,0.5],[1,0.5]];portConstraint=eastwest;whiteSpace=wrap;html=1;" parent="1szoUk2Qu7n9edS88V_P-21" vertex="1">
          <mxGeometry y="74" width="223" height="24" as="geometry" />
        </mxCell>
        <mxCell id="1szoUk2Qu7n9edS88V_P-24" value="" style="line;strokeWidth=1;fillColor=none;align=left;verticalAlign=middle;spacingTop=-1;spacingLeft=3;spacingRight=3;rotatable=0;labelPosition=right;points=[];portConstraint=eastwest;strokeColor=inherit;" parent="1szoUk2Qu7n9edS88V_P-21" vertex="1">
          <mxGeometry y="98" width="223" height="8" as="geometry" />
        </mxCell>
        <mxCell id="1szoUk2Qu7n9edS88V_P-25" value="+ GetRackId(): int" style="text;strokeColor=none;fillColor=none;align=left;verticalAlign=top;spacingLeft=4;spacingRight=4;overflow=hidden;rotatable=0;points=[[0,0.5],[1,0.5]];portConstraint=eastwest;whiteSpace=wrap;html=1;" parent="1szoUk2Qu7n9edS88V_P-21" vertex="1">
          <mxGeometry y="106" width="223" height="27" as="geometry" />
        </mxCell>
        <mxCell id="30ZgVDHLljCXbjBKu-6W-13" value="+ AddSpindle(): void" style="text;strokeColor=none;fillColor=none;align=left;verticalAlign=top;spacingLeft=4;spacingRight=4;overflow=hidden;rotatable=0;points=[[0,0.5],[1,0.5]];portConstraint=eastwest;whiteSpace=wrap;html=1;" vertex="1" parent="1szoUk2Qu7n9edS88V_P-21">
          <mxGeometry y="133" width="223" height="28" as="geometry" />
        </mxCell>
        <mxCell id="30ZgVDHLljCXbjBKu-6W-14" value="+ UpdateSpindle(): void" style="text;strokeColor=none;fillColor=none;align=left;verticalAlign=top;spacingLeft=4;spacingRight=4;overflow=hidden;rotatable=0;points=[[0,0.5],[1,0.5]];portConstraint=eastwest;whiteSpace=wrap;html=1;" vertex="1" parent="1szoUk2Qu7n9edS88V_P-21">
          <mxGeometry y="161" width="223" height="28" as="geometry" />
        </mxCell>
        <mxCell id="30ZgVDHLljCXbjBKu-6W-15" value="+ GetEmptySpindles(): hashmap" style="text;strokeColor=none;fillColor=none;align=left;verticalAlign=top;spacingLeft=4;spacingRight=4;overflow=hidden;rotatable=0;points=[[0,0.5],[1,0.5]];portConstraint=eastwest;whiteSpace=wrap;html=1;" vertex="1" parent="1szoUk2Qu7n9edS88V_P-21">
          <mxGeometry y="189" width="223" height="28" as="geometry" />
        </mxCell>
        <mxCell id="1szoUk2Qu7n9edS88V_P-26" value="+ GetSpindleIDs(): hashset" style="text;strokeColor=none;fillColor=none;align=left;verticalAlign=top;spacingLeft=4;spacingRight=4;overflow=hidden;rotatable=0;points=[[0,0.5],[1,0.5]];portConstraint=eastwest;whiteSpace=wrap;html=1;" parent="1szoUk2Qu7n9edS88V_P-21" vertex="1">
          <mxGeometry y="217" width="223" height="28" as="geometry" />
        </mxCell>
        <mxCell id="30ZgVDHLljCXbjBKu-6W-16" value="+ GetSpindleHandle(): Spindle*" style="text;strokeColor=none;fillColor=none;align=left;verticalAlign=top;spacingLeft=4;spacingRight=4;overflow=hidden;rotatable=0;points=[[0,0.5],[1,0.5]];portConstraint=eastwest;whiteSpace=wrap;html=1;" vertex="1" parent="1szoUk2Qu7n9edS88V_P-21">
          <mxGeometry y="245" width="223" height="28" as="geometry" />
        </mxCell>
        <mxCell id="30ZgVDHLljCXbjBKu-6W-17" value="+ RemoveAllEmptySpindle(): void" style="text;strokeColor=none;fillColor=none;align=left;verticalAlign=top;spacingLeft=4;spacingRight=4;overflow=hidden;rotatable=0;points=[[0,0.5],[1,0.5]];portConstraint=eastwest;whiteSpace=wrap;html=1;" vertex="1" parent="1szoUk2Qu7n9edS88V_P-21">
          <mxGeometry y="273" width="223" height="28" as="geometry" />
        </mxCell>
        <mxCell id="30ZgVDHLljCXbjBKu-6W-18" value="+ GetAllAvailableProducts(): hashmap" style="text;strokeColor=none;fillColor=none;align=left;verticalAlign=top;spacingLeft=4;spacingRight=4;overflow=hidden;rotatable=0;points=[[0,0.5],[1,0.5]];portConstraint=eastwest;whiteSpace=wrap;html=1;" vertex="1" parent="1szoUk2Qu7n9edS88V_P-21">
          <mxGeometry y="301" width="223" height="28" as="geometry" />
        </mxCell>
        <mxCell id="1szoUk2Qu7n9edS88V_P-30" value="+ DispenseSpindleProduct(): void" style="text;strokeColor=none;fillColor=none;align=left;verticalAlign=top;spacingLeft=4;spacingRight=4;overflow=hidden;rotatable=0;points=[[0,0.5],[1,0.5]];portConstraint=eastwest;whiteSpace=wrap;html=1;" parent="1szoUk2Qu7n9edS88V_P-21" vertex="1">
          <mxGeometry y="329" width="223" height="28" as="geometry" />
        </mxCell>
        <mxCell id="1szoUk2Qu7n9edS88V_P-31" value="" style="endArrow=diamondThin;endFill=1;endSize=24;html=1;rounded=0;entryX=1;entryY=0.5;entryDx=0;entryDy=0;exitX=0;exitY=0.5;exitDx=0;exitDy=0;curved=1;" parent="1" source="1szoUk2Qu7n9edS88V_P-12" target="30ZgVDHLljCXbjBKu-6W-12" edge="1">
          <mxGeometry width="160" relative="1" as="geometry">
            <mxPoint x="-1290" y="-220" as="sourcePoint" />
            <mxPoint x="-1130" y="-220" as="targetPoint" />
            <Array as="points">
              <mxPoint x="-1260" y="-430" />
              <mxPoint x="-1240" y="-269" />
            </Array>
          </mxGeometry>
        </mxCell>
        <mxCell id="1szoUk2Qu7n9edS88V_P-33" value="&lt;p style=&quot;margin:0px;margin-top:4px;text-align:center;&quot;&gt;&lt;i&gt;&amp;lt;&amp;lt;Interface&amp;gt;&amp;gt;&lt;/i&gt;&lt;br&gt;&lt;b&gt;PaymentMethod&lt;/b&gt;&lt;/p&gt;&lt;hr size=&quot;1&quot; style=&quot;border-style:solid;&quot;&gt;&lt;p style=&quot;margin:0px;margin-left:4px;&quot;&gt;+ ProcessPayment(): bool&lt;/p&gt;&lt;p style=&quot;margin:0px;margin-left:4px;&quot;&gt;&lt;br&gt;&lt;/p&gt;" style="verticalAlign=top;align=left;overflow=fill;html=1;whiteSpace=wrap;" parent="1" vertex="1">
          <mxGeometry x="-1590" y="280" width="220" height="80" as="geometry" />
        </mxCell>
        <mxCell id="1szoUk2Qu7n9edS88V_P-39" value="ReturnChangeState" style="swimlane;fontStyle=1;align=center;verticalAlign=top;childLayout=stackLayout;horizontal=1;startSize=26;horizontalStack=0;resizeParent=1;resizeParentMax=0;resizeLast=0;collapsible=1;marginBottom=0;whiteSpace=wrap;html=1;" parent="1" vertex="1">
          <mxGeometry x="-1430" y="489" width="216" height="104" as="geometry" />
        </mxCell>
        <mxCell id="1szoUk2Qu7n9edS88V_P-40" value="+ ProcessPayment(): bool" style="text;strokeColor=none;fillColor=none;align=left;verticalAlign=top;spacingLeft=4;spacingRight=4;overflow=hidden;rotatable=0;points=[[0,0.5],[1,0.5]];portConstraint=eastwest;whiteSpace=wrap;html=1;" parent="1szoUk2Qu7n9edS88V_P-39" vertex="1">
          <mxGeometry y="26" width="216" height="26" as="geometry" />
        </mxCell>
        <mxCell id="1szoUk2Qu7n9edS88V_P-41" value="+ AddCard(): void" style="text;strokeColor=none;fillColor=none;align=left;verticalAlign=top;spacingLeft=4;spacingRight=4;overflow=hidden;rotatable=0;points=[[0,0.5],[1,0.5]];portConstraint=eastwest;whiteSpace=wrap;html=1;" parent="1szoUk2Qu7n9edS88V_P-39" vertex="1">
          <mxGeometry y="52" width="216" height="26" as="geometry" />
        </mxCell>
        <mxCell id="30ZgVDHLljCXbjBKu-6W-56" value="+ PaymentStatus(): bool" style="text;strokeColor=none;fillColor=none;align=left;verticalAlign=top;spacingLeft=4;spacingRight=4;overflow=hidden;rotatable=0;points=[[0,0.5],[1,0.5]];portConstraint=eastwest;whiteSpace=wrap;html=1;" vertex="1" parent="1szoUk2Qu7n9edS88V_P-39">
          <mxGeometry y="78" width="216" height="26" as="geometry" />
        </mxCell>
        <mxCell id="1szoUk2Qu7n9edS88V_P-44" value="" style="endArrow=block;dashed=1;endFill=0;endSize=12;html=1;rounded=0;fontSize=12;curved=1;entryX=0.646;entryY=1.011;entryDx=0;entryDy=0;exitX=0.5;exitY=0;exitDx=0;exitDy=0;entryPerimeter=0;" parent="1" source="1szoUk2Qu7n9edS88V_P-39" target="1szoUk2Qu7n9edS88V_P-33" edge="1">
          <mxGeometry width="160" relative="1" as="geometry">
            <mxPoint x="-1199" y="395" as="sourcePoint" />
            <mxPoint x="-1039" y="395" as="targetPoint" />
          </mxGeometry>
        </mxCell>
        <mxCell id="1szoUk2Qu7n9edS88V_P-45" value="" style="endArrow=block;dashed=1;endFill=0;endSize=12;html=1;rounded=0;fontSize=12;curved=1;entryX=0.25;entryY=1;entryDx=0;entryDy=0;exitX=0.5;exitY=0;exitDx=0;exitDy=0;" parent="1" source="1szoUk2Qu7n9edS88V_P-63" target="1szoUk2Qu7n9edS88V_P-33" edge="1">
          <mxGeometry width="160" relative="1" as="geometry">
            <mxPoint x="-1650" y="489" as="sourcePoint" />
            <mxPoint x="-1181" y="401" as="targetPoint" />
          </mxGeometry>
        </mxCell>
        <mxCell id="1szoUk2Qu7n9edS88V_P-47" value="&lt;p style=&quot;margin:0px;margin-top:4px;text-align:center;&quot;&gt;&lt;i&gt;&amp;lt;&amp;lt;enumeration&amp;gt;&amp;gt;&lt;/i&gt;&lt;br&gt;&lt;b&gt;COIN&lt;/b&gt;&lt;/p&gt;&lt;hr size=&quot;1&quot; style=&quot;border-style:solid;&quot;&gt;&lt;p style=&quot;margin:0px;margin-left:4px;&quot;&gt;ONE&lt;/p&gt;&lt;p style=&quot;margin:0px;margin-left:4px;&quot;&gt;TWO&lt;/p&gt;&lt;p style=&quot;margin:0px;margin-left:4px;&quot;&gt;FIVE&lt;/p&gt;" style="verticalAlign=top;align=left;overflow=fill;html=1;whiteSpace=wrap;" parent="1" vertex="1">
          <mxGeometry x="-1758" y="640" width="100" height="95" as="geometry" />
        </mxCell>
        <mxCell id="1szoUk2Qu7n9edS88V_P-48" value="&lt;p style=&quot;margin:0px;margin-top:4px;text-align:center;&quot;&gt;&lt;i&gt;&amp;lt;&amp;lt;enumeration&amp;gt;&amp;gt;&lt;/i&gt;&lt;br&gt;&lt;b&gt;CASH&lt;/b&gt;&lt;/p&gt;&lt;hr size=&quot;1&quot; style=&quot;border-style:solid;&quot;&gt;&lt;p style=&quot;margin:0px;margin-left:4px;&quot;&gt;TEN&lt;/p&gt;&lt;p style=&quot;margin:0px;margin-left:4px;&quot;&gt;TWENTY&lt;/p&gt;&lt;p style=&quot;margin:0px;margin-left:4px;&quot;&gt;FIFTY&lt;/p&gt;" style="verticalAlign=top;align=left;overflow=fill;html=1;whiteSpace=wrap;" parent="1" vertex="1">
          <mxGeometry x="-1642" y="640" width="100" height="95" as="geometry" />
        </mxCell>
        <mxCell id="1szoUk2Qu7n9edS88V_P-50" value="" style="endArrow=open;endFill=1;endSize=12;html=1;rounded=0;entryX=0.5;entryY=0;entryDx=0;entryDy=0;exitX=0.586;exitY=1.115;exitDx=0;exitDy=0;exitPerimeter=0;" parent="1" target="1szoUk2Qu7n9edS88V_P-48" edge="1">
          <mxGeometry width="160" relative="1" as="geometry">
            <mxPoint x="-1631.424" y="569.9899999999998" as="sourcePoint" />
            <mxPoint x="-1490" y="640" as="targetPoint" />
            <Array as="points" />
          </mxGeometry>
        </mxCell>
        <mxCell id="1szoUk2Qu7n9edS88V_P-53" value="" style="endArrow=open;endFill=1;endSize=12;html=1;rounded=0;entryX=0.5;entryY=0;entryDx=0;entryDy=0;entryPerimeter=0;exitX=0.481;exitY=1.038;exitDx=0;exitDy=0;exitPerimeter=0;" parent="1" target="1szoUk2Qu7n9edS88V_P-47" edge="1">
          <mxGeometry width="160" relative="1" as="geometry">
            <mxPoint x="-1654.1039999999998" y="567.9879999999998" as="sourcePoint" />
            <mxPoint x="-1770" y="680" as="targetPoint" />
          </mxGeometry>
        </mxCell>
        <mxCell id="1szoUk2Qu7n9edS88V_P-63" value="CashPayment" style="swimlane;fontStyle=1;align=center;verticalAlign=top;childLayout=stackLayout;horizontal=1;startSize=26;horizontalStack=0;resizeParent=1;resizeParentMax=0;resizeLast=0;collapsible=1;marginBottom=0;whiteSpace=wrap;html=1;" parent="1" vertex="1">
          <mxGeometry x="-1750" y="440" width="256" height="130" as="geometry" />
        </mxCell>
        <mxCell id="1szoUk2Qu7n9edS88V_P-64" value="- CurrentAmount: int" style="text;strokeColor=none;fillColor=none;align=left;verticalAlign=top;spacingLeft=4;spacingRight=4;overflow=hidden;rotatable=0;points=[[0,0.5],[1,0.5]];portConstraint=eastwest;whiteSpace=wrap;html=1;" parent="1szoUk2Qu7n9edS88V_P-63" vertex="1">
          <mxGeometry y="26" width="256" height="24" as="geometry" />
        </mxCell>
        <mxCell id="1szoUk2Qu7n9edS88V_P-73" value="" style="line;strokeWidth=1;fillColor=none;align=left;verticalAlign=middle;spacingTop=-1;spacingLeft=3;spacingRight=3;rotatable=0;labelPosition=right;points=[];portConstraint=eastwest;strokeColor=inherit;" parent="1szoUk2Qu7n9edS88V_P-63" vertex="1">
          <mxGeometry y="50" width="256" height="8" as="geometry" />
        </mxCell>
        <mxCell id="1szoUk2Qu7n9edS88V_P-74" value="&lt;p style=&quot;margin: 0px 0px 0px 4px;&quot;&gt;+ ProcessPayment() :bool&lt;/p&gt;&lt;p style=&quot;margin: 0px 0px 0px 4px;&quot;&gt;+ AddCash():void&lt;/p&gt;&lt;p style=&quot;margin: 0px 0px 0px 4px;&quot;&gt;&lt;span style=&quot;background-color: initial;&quot;&gt;+ ReturnChange(): void&lt;/span&gt;&lt;/p&gt;" style="text;strokeColor=none;fillColor=none;align=left;verticalAlign=top;spacingLeft=4;spacingRight=4;overflow=hidden;rotatable=0;points=[[0,0.5],[1,0.5]];portConstraint=eastwest;whiteSpace=wrap;html=1;" parent="1szoUk2Qu7n9edS88V_P-63" vertex="1">
          <mxGeometry y="58" width="256" height="72" as="geometry" />
        </mxCell>
        <mxCell id="1szoUk2Qu7n9edS88V_P-75" value="" style="endArrow=diamondThin;endFill=1;endSize=24;html=1;rounded=0;entryX=0;entryY=0.5;entryDx=0;entryDy=0;exitX=1;exitY=0.75;exitDx=0;exitDy=0;curved=1;" parent="1" source="1szoUk2Qu7n9edS88V_P-33" edge="1">
          <mxGeometry width="160" relative="1" as="geometry">
            <mxPoint x="-1370" y="300" as="sourcePoint" />
            <mxPoint x="-611" y="2.5" as="targetPoint" />
            <Array as="points">
              <mxPoint x="-860" y="370" />
              <mxPoint x="-740" y="-10" />
            </Array>
          </mxGeometry>
        </mxCell>
        <mxCell id="1szoUk2Qu7n9edS88V_P-76" value="" style="endArrow=none;html=1;rounded=0;" parent="1" edge="1">
          <mxGeometry width="50" height="50" relative="1" as="geometry">
            <mxPoint x="-2040" y="800" as="sourcePoint" />
            <mxPoint x="-2040" y="-750" as="targetPoint" />
            <Array as="points" />
          </mxGeometry>
        </mxCell>
        <mxCell id="30ZgVDHLljCXbjBKu-6W-19" value="" style="endArrow=diamondThin;endFill=1;endSize=24;html=1;rounded=0;exitX=1;exitY=0.5;exitDx=0;exitDy=0;" edge="1" parent="1" source="30ZgVDHLljCXbjBKu-6W-38">
          <mxGeometry width="160" relative="1" as="geometry">
            <mxPoint x="-890" y="-70" as="sourcePoint" />
            <mxPoint x="-611" y="-70" as="targetPoint" />
          </mxGeometry>
        </mxCell>
        <mxCell id="30ZgVDHLljCXbjBKu-6W-28" value="Inventory" style="swimlane;fontStyle=1;align=center;verticalAlign=top;childLayout=stackLayout;horizontal=1;startSize=26;horizontalStack=0;resizeParent=1;resizeParentMax=0;resizeLast=0;collapsible=1;marginBottom=0;whiteSpace=wrap;html=1;" vertex="1" parent="1">
          <mxGeometry x="-1100" y="-170" width="223" height="397" as="geometry" />
        </mxCell>
        <mxCell id="30ZgVDHLljCXbjBKu-6W-29" value="- racks: hashmap" style="text;strokeColor=none;fillColor=none;align=left;verticalAlign=top;spacingLeft=4;spacingRight=4;overflow=hidden;rotatable=0;points=[[0,0.5],[1,0.5]];portConstraint=eastwest;whiteSpace=wrap;html=1;" vertex="1" parent="30ZgVDHLljCXbjBKu-6W-28">
          <mxGeometry y="26" width="223" height="31" as="geometry" />
        </mxCell>
        <mxCell id="30ZgVDHLljCXbjBKu-6W-37" value="- availableProductsMap:hashmap" style="text;strokeColor=none;fillColor=none;align=left;verticalAlign=top;spacingLeft=4;spacingRight=4;overflow=hidden;rotatable=0;points=[[0,0.5],[1,0.5]];portConstraint=eastwest;whiteSpace=wrap;html=1;" vertex="1" parent="30ZgVDHLljCXbjBKu-6W-28">
          <mxGeometry y="57" width="223" height="31" as="geometry" />
        </mxCell>
        <mxCell id="30ZgVDHLljCXbjBKu-6W-38" value="- productCountPrice:hashmap" style="text;strokeColor=none;fillColor=none;align=left;verticalAlign=top;spacingLeft=4;spacingRight=4;overflow=hidden;rotatable=0;points=[[0,0.5],[1,0.5]];portConstraint=eastwest;whiteSpace=wrap;html=1;" vertex="1" parent="30ZgVDHLljCXbjBKu-6W-28">
          <mxGeometry y="88" width="223" height="31" as="geometry" />
        </mxCell>
        <mxCell id="30ZgVDHLljCXbjBKu-6W-39" value="- productToRackID:hashmap" style="text;strokeColor=none;fillColor=none;align=left;verticalAlign=top;spacingLeft=4;spacingRight=4;overflow=hidden;rotatable=0;points=[[0,0.5],[1,0.5]];portConstraint=eastwest;whiteSpace=wrap;html=1;" vertex="1" parent="30ZgVDHLljCXbjBKu-6W-28">
          <mxGeometry y="119" width="223" height="31" as="geometry" />
        </mxCell>
        <mxCell id="30ZgVDHLljCXbjBKu-6W-40" value="- cart:hashmap" style="text;strokeColor=none;fillColor=none;align=left;verticalAlign=top;spacingLeft=4;spacingRight=4;overflow=hidden;rotatable=0;points=[[0,0.5],[1,0.5]];portConstraint=eastwest;whiteSpace=wrap;html=1;" vertex="1" parent="30ZgVDHLljCXbjBKu-6W-28">
          <mxGeometry y="150" width="223" height="31" as="geometry" />
        </mxCell>
        <mxCell id="30ZgVDHLljCXbjBKu-6W-30" value="" style="line;strokeWidth=1;fillColor=none;align=left;verticalAlign=middle;spacingTop=-1;spacingLeft=3;spacingRight=3;rotatable=0;labelPosition=right;points=[];portConstraint=eastwest;strokeColor=inherit;" vertex="1" parent="30ZgVDHLljCXbjBKu-6W-28">
          <mxGeometry y="181" width="223" height="8" as="geometry" />
        </mxCell>
        <mxCell id="30ZgVDHLljCXbjBKu-6W-31" value="+ IsProductAvailable(): bool" style="text;strokeColor=none;fillColor=none;align=left;verticalAlign=top;spacingLeft=4;spacingRight=4;overflow=hidden;rotatable=0;points=[[0,0.5],[1,0.5]];portConstraint=eastwest;whiteSpace=wrap;html=1;" vertex="1" parent="30ZgVDHLljCXbjBKu-6W-28">
          <mxGeometry y="189" width="223" height="26" as="geometry" />
        </mxCell>
        <mxCell id="30ZgVDHLljCXbjBKu-6W-32" value="+ DisplayProducts(): void" style="text;strokeColor=none;fillColor=none;align=left;verticalAlign=top;spacingLeft=4;spacingRight=4;overflow=hidden;rotatable=0;points=[[0,0.5],[1,0.5]];portConstraint=eastwest;whiteSpace=wrap;html=1;" vertex="1" parent="30ZgVDHLljCXbjBKu-6W-28">
          <mxGeometry y="215" width="223" height="26" as="geometry" />
        </mxCell>
        <mxCell id="30ZgVDHLljCXbjBKu-6W-33" value="+ AddRack(): void" style="text;strokeColor=none;fillColor=none;align=left;verticalAlign=top;spacingLeft=4;spacingRight=4;overflow=hidden;rotatable=0;points=[[0,0.5],[1,0.5]];portConstraint=eastwest;whiteSpace=wrap;html=1;" vertex="1" parent="30ZgVDHLljCXbjBKu-6W-28">
          <mxGeometry y="241" width="223" height="26" as="geometry" />
        </mxCell>
        <mxCell id="30ZgVDHLljCXbjBKu-6W-34" value="+ UpdateProducts(): void" style="text;strokeColor=none;fillColor=none;align=left;verticalAlign=top;spacingLeft=4;spacingRight=4;overflow=hidden;rotatable=0;points=[[0,0.5],[1,0.5]];portConstraint=eastwest;whiteSpace=wrap;html=1;" vertex="1" parent="30ZgVDHLljCXbjBKu-6W-28">
          <mxGeometry y="267" width="223" height="26" as="geometry" />
        </mxCell>
        <mxCell id="30ZgVDHLljCXbjBKu-6W-35" value="+ AddToCart(): void" style="text;strokeColor=none;fillColor=none;align=left;verticalAlign=top;spacingLeft=4;spacingRight=4;overflow=hidden;rotatable=0;points=[[0,0.5],[1,0.5]];portConstraint=eastwest;whiteSpace=wrap;html=1;" vertex="1" parent="30ZgVDHLljCXbjBKu-6W-28">
          <mxGeometry y="293" width="223" height="26" as="geometry" />
        </mxCell>
        <mxCell id="30ZgVDHLljCXbjBKu-6W-41" value="+ GetCheckoutAmount(): int" style="text;strokeColor=none;fillColor=none;align=left;verticalAlign=top;spacingLeft=4;spacingRight=4;overflow=hidden;rotatable=0;points=[[0,0.5],[1,0.5]];portConstraint=eastwest;whiteSpace=wrap;html=1;" vertex="1" parent="30ZgVDHLljCXbjBKu-6W-28">
          <mxGeometry y="319" width="223" height="26" as="geometry" />
        </mxCell>
        <mxCell id="30ZgVDHLljCXbjBKu-6W-42" value="+ EmptyCart(): void" style="text;strokeColor=none;fillColor=none;align=left;verticalAlign=top;spacingLeft=4;spacingRight=4;overflow=hidden;rotatable=0;points=[[0,0.5],[1,0.5]];portConstraint=eastwest;whiteSpace=wrap;html=1;" vertex="1" parent="30ZgVDHLljCXbjBKu-6W-28">
          <mxGeometry y="345" width="223" height="26" as="geometry" />
        </mxCell>
        <mxCell id="30ZgVDHLljCXbjBKu-6W-43" value="+ DispenseCart(): void" style="text;strokeColor=none;fillColor=none;align=left;verticalAlign=top;spacingLeft=4;spacingRight=4;overflow=hidden;rotatable=0;points=[[0,0.5],[1,0.5]];portConstraint=eastwest;whiteSpace=wrap;html=1;" vertex="1" parent="30ZgVDHLljCXbjBKu-6W-28">
          <mxGeometry y="371" width="223" height="26" as="geometry" />
        </mxCell>
        <mxCell id="30ZgVDHLljCXbjBKu-6W-36" value="" style="endArrow=diamondThin;endFill=1;endSize=24;html=1;rounded=0;exitX=1;exitY=0.821;exitDx=0;exitDy=0;exitPerimeter=0;" edge="1" parent="1" source="1szoUk2Qu7n9edS88V_P-26">
          <mxGeometry width="160" relative="1" as="geometry">
            <mxPoint x="-1260" y="-100" as="sourcePoint" />
            <mxPoint x="-1100" y="-100" as="targetPoint" />
          </mxGeometry>
        </mxCell>
        <mxCell id="30ZgVDHLljCXbjBKu-6W-44" value="" style="endArrow=diamondThin;endFill=1;endSize=24;html=1;rounded=0;curved=1;exitX=0.426;exitY=0.03;exitDx=0;exitDy=0;exitPerimeter=0;" edge="1" parent="1" source="hfRFv-ZQtOtm15L3ZewX-20">
          <mxGeometry width="160" relative="1" as="geometry">
            <mxPoint x="380" y="310" as="sourcePoint" />
            <mxPoint x="-355" as="targetPoint" />
            <Array as="points">
              <mxPoint x="400" y="10" />
              <mxPoint x="-315" />
            </Array>
          </mxGeometry>
        </mxCell>
      </root>
    </mxGraphModel>
  </diagram>
  <diagram id="GB7-Q0Sh1yD0wHfdt_3-" name="Page-2">
    <mxGraphModel dx="434" dy="579" grid="0" gridSize="10" guides="1" tooltips="1" connect="1" arrows="1" fold="1" page="0" pageScale="1" pageWidth="850" pageHeight="1100" math="0" shadow="0">
      <root>
        <mxCell id="0" />
        <mxCell id="1" parent="0" />
      </root>
    </mxGraphModel>
  </diagram>
</mxfile>
